<svg width="311" height="287" viewBox="0 0 311 287" fill="none" xmlns="http://www.w3.org/2000/svg">
<ellipse cx="164.5" cy="264.514" rx="106.5" ry="22.2488" fill="#D9D9D9"/>
<path d="M80.8854 210.613C80.8854 210.613 76.3368 268.814 81.7504 269.784C87.164 270.753 95.3024 216.986 95.3024 216.986L80.8854 210.613Z" fill="#140000"/>
<path d="M230.116 210.613C230.116 210.613 234.665 268.814 229.251 269.784C223.838 270.753 215.699 216.986 215.699 216.986L230.116 210.613Z" fill="#140000"/>
<path d="M98.8781 112.84C98.8781 112.84 195.919 99.008 216.312 114.504C236.705 129.999 214.741 176.37 225.964 182.048C243.755 191.04 247.756 212.634 242.183 228.301C236.611 243.969 85.7514 244.952 71.1397 231.402C56.528 217.852 81.1019 187.658 79.7683 176.933C78.4347 166.209 78.4708 119.818 98.8781 112.84Z" fill="#6600CC"/>
<path d="M52.1243 97.0015C52.1243 97.0015 120.938 36.2291 244.368 93.8882C253.747 98.2617 306.718 222.747 254.499 241.229C202.279 259.712 62.2935 248.605 41.0223 241.229C19.7511 233.854 33.0424 107.416 52.1243 97.0015Z" fill="white"/>
<path opacity="0.3" d="M52.1243 97.0015C52.1243 97.0015 120.938 36.2291 244.368 93.8882C253.747 98.2617 306.718 222.747 254.499 241.229C202.279 259.712 62.2935 248.605 41.0223 241.229C19.7511 233.854 33.0424 107.416 52.1243 97.0015Z" fill="#6600CC"/>
<path d="M81.5573 124.294C81.5573 124.294 90.0425 118.03 92.3613 119.846C94.6931 121.662 93.1904 128.42 93.1904 128.42C93.1904 128.42 110.264 167.288 108.697 183.04L113.438 190.218L97.3877 192.849C97.3877 192.849 50.2335 202.177 29.7136 204.908C29.7136 204.908 22.796 212.543 20.7233 212.259C18.6506 211.974 20.7233 201.844 20.7233 201.844L8.27406 149.052C8.27406 149.052 -2.78904 137.18 0.669791 137.328C4.12863 137.476 15.1917 141.442 15.1917 141.442C15.1917 141.442 64.2761 126.938 81.5573 124.294Z" fill="white"/>
<path opacity="0.3" d="M81.5573 124.294C81.5573 124.294 90.0425 118.03 92.3613 119.846C94.6931 121.662 93.1904 128.42 93.1904 128.42C93.1904 128.42 110.264 167.288 108.697 183.04L113.438 190.218L97.3877 192.849C97.3877 192.849 50.2335 202.177 29.7136 204.908C29.7136 204.908 22.796 212.543 20.7233 212.259C18.6506 211.974 20.7233 201.844 20.7233 201.844L8.27406 149.052C8.27406 149.052 -2.78904 137.18 0.669791 137.328C4.12863 137.476 15.1917 141.442 15.1917 141.442C15.1917 141.442 64.2761 126.938 81.5573 124.294Z" fill="#C3FF28"/>
<path d="M299.282 143.27C299.282 143.27 309.969 142.43 310.889 145.16C311.809 147.89 306.679 152.783 306.679 152.783C306.679 152.783 298.764 194.245 288.439 206.637L288.31 215.124L273.347 208.984C273.347 208.984 228.499 192.281 209.728 183.892C209.728 183.892 199.572 186.696 197.991 185.374C196.411 184.052 203.95 176.64 203.95 176.64L223.719 125.912C223.719 125.912 221.244 110.209 224.056 112.124C226.867 114.051 233.875 123.119 233.875 123.119C233.875 123.119 283.283 136.499 299.282 143.27Z" fill="white"/>
<path opacity="0.3" d="M299.282 143.27C299.282 143.27 309.969 142.43 310.889 145.16C311.809 147.89 306.679 152.783 306.679 152.783C306.679 152.783 298.764 194.245 288.439 206.637L288.31 215.124L273.347 208.984C273.347 208.984 228.499 192.281 209.728 183.892C209.728 183.892 199.572 186.696 197.991 185.374C196.411 184.052 203.95 176.64 203.95 176.64L223.719 125.912C223.719 125.912 221.244 110.209 224.056 112.124C226.867 114.051 233.875 123.119 233.875 123.119C233.875 123.119 283.283 136.499 299.282 143.27Z" fill="#C3FF28"/>
<path d="M32.9254 169.548L32.6016 168.35C34.4022 167.905 76.9317 157.466 88.1632 157.75L88.1243 158.985C77.1001 158.639 33.3659 169.437 32.9254 169.548Z" fill="#261E35"/>
<path d="M281.092 167.794C270.793 164.026 225.789 160.455 225.336 160.418L225.44 159.183C227.292 159.331 271.091 162.803 281.558 166.632L281.092 167.794Z" fill="#261E35"/>
<path d="M162.534 60.1104C162.534 60.1104 186.694 61.3335 186.396 53.0435C186.098 44.7536 177.445 17.8699 169.18 18.7347C160.915 19.5872 155.707 60.1227 162.534 60.1104Z" fill="#261E35"/>
<path d="M145.318 34.4746C145.318 34.4746 142.027 56.9847 138.011 64.1875C136.275 67.3132 121.611 65.2253 114.486 71.7238C107.361 78.2223 131.754 96.9149 146.535 104.921C157.858 111.061 189.337 70.8343 187.912 70.7231C178.74 70.0683 162.197 66.5349 162.534 60.0981C162.871 53.6613 163.052 47.8053 163.052 47.8053C163.052 47.8053 146.665 35.4383 145.318 34.4746Z" fill="#D27878"/>
<path d="M138.61 16.2269C138.61 16.2269 133.013 55.2181 156.176 56.3794C172.11 57.1825 179.947 31.7319 176.022 19.5873C172.097 7.45508 148.338 6.99796 138.61 16.2269Z" fill="#D27878"/>
<path d="M139.386 35.0309C139.386 35.0309 138.648 28.3594 135.073 31.3739C131.484 34.3885 135.824 42.9873 139.101 43.1108C142.379 43.2344 140.772 38.0948 139.386 35.0309Z" fill="#D27878"/>
<path d="M145.553 45.149C147.85 45.149 149.711 43.3734 149.711 41.1831C149.711 38.9928 147.85 37.2173 145.553 37.2173C143.256 37.2173 141.395 38.9928 141.395 41.1831C141.395 43.3734 143.256 45.149 145.553 45.149Z" fill="#CB5C6C"/>
<path d="M169.182 44.395C171.478 44.395 173.34 42.6195 173.34 40.4292C173.34 38.239 171.478 36.4634 169.182 36.4634C166.885 36.4634 165.023 38.239 165.023 40.4292C165.023 42.6195 166.885 44.395 169.182 44.395Z" fill="#CB5C6C"/>
<path d="M128.154 66.708C128.154 66.708 133.401 91.8497 154.827 90.5648C174.751 89.3664 176.241 68.24 176.241 68.24C184.765 70.3032 211.335 70.4267 218.913 90.5648C226.491 110.703 236.052 184.201 221.063 190.847C206.075 197.494 192.693 198.075 156.447 199.409C120.213 200.743 103.657 219.918 83.9666 215.631C64.2758 211.344 82.1271 83.4979 95.5997 75.3192C109.072 67.1404 128.154 66.708 128.154 66.708Z" fill="#C3FF28"/>
<path d="M60.4531 139.971C60.4531 139.971 76.4648 153.338 88.0202 151.572C99.5755 149.805 105.379 110.381 106.895 94.7899C108.41 79.1984 107.102 68.7958 102.762 71.8103C98.4226 74.8125 74.0035 74.689 60.4531 139.971Z" fill="#C3FF28"/>
<path d="M229.56 125.726C229.56 125.726 216.204 136.091 206.566 134.72C196.928 133.349 192.096 102.783 190.827 90.6881C189.557 78.5929 190.023 75.1954 186.526 72.7368C184.893 71.5755 221.412 73.2927 229.56 125.726Z" fill="#C3FF28"/>
<path d="M88.7332 128.122C88.7332 128.122 83.5773 153.116 103.683 158.836C123.788 164.556 200.297 136.4 220.881 136.833C241.453 137.265 234.276 144.184 233.758 134.3C233.305 125.787 233.331 120.364 217.345 119.067C201.359 117.769 145.551 92.0841 88.7332 128.122Z" fill="#D27878"/>
<path d="M160.658 45.0131C159.168 45.0008 156.487 43.5676 156.176 43.407L156.811 42.3322C157.769 42.8511 159.531 43.6541 160.464 43.7653C160.788 42.9376 160.503 39.4782 160.01 36.5502L161.293 36.3525C161.656 38.4899 162.394 43.5676 161.409 44.6672C161.215 44.8896 160.943 45.0131 160.658 45.0131Z" fill="#261E35"/>
<path d="M150.889 35.7841C148.998 35.7841 147.275 35.0058 146.316 34.3386L147.081 33.3379C147.236 33.4491 150.993 35.9941 154.037 33.375L154.905 34.2892C153.636 35.3888 152.224 35.7841 150.889 35.7841Z" fill="#261E35"/>
<path d="M168.108 36.4511C166.217 36.4511 164.494 35.6728 163.535 35.0056L164.299 34.0049C164.455 34.1161 168.212 36.6611 171.256 34.0419L172.124 34.9562C170.854 36.0558 169.442 36.4511 168.108 36.4511Z" fill="#261E35"/>
<path d="M150.675 46.6733C153.839 50.7626 160.643 49.254 160.709 49.2476L161.016 50.455C160.709 50.5261 153.306 52.1658 149.623 47.4204L150.675 46.6733Z" fill="#261E35"/>
<path d="M157.897 56.7997C153.415 56.7997 149.723 55.4901 149.477 55.4037L149.93 54.2423C150.021 54.2794 158.894 57.4051 165.462 53.8223L166.11 54.8971C163.467 56.3302 160.54 56.7997 157.897 56.7997Z" fill="#261E35"/>
<path d="M124.203 111.506C124.203 111.506 143.739 149.113 141.031 153.116C138.324 157.119 98.191 183.41 69.8855 168.312C41.5801 153.215 69.6523 95.3829 84.9127 86.9323C100.16 78.4818 124.203 111.506 124.203 111.506Z" fill="#C3FF28"/>
<path d="M93.3987 117.053L92.9453 115.892C101.819 112.766 123.233 110.962 124.14 110.888L124.256 112.124C124.036 112.148 102.104 113.989 93.3987 117.053Z" fill="#140000"/>
<path d="M111.859 54.5262C111.859 54.5262 147.16 64.1628 145.554 57.8248C141.732 42.7522 143.08 24.1709 145.554 23.306C148.028 22.4536 162.991 33.8816 173.354 28.7421C183.718 23.5902 183.536 2.58732 158.897 0.301712C134.232 -1.99625 118.635 8.14691 111.859 54.5262Z" fill="#140000"/>
<path d="M236.87 115.064C236.87 115.064 202.968 38.9349 189.495 20.8477C176.023 2.76055 166.113 2.85939 166.113 2.85939C162.939 4.95967 171.282 12.7307 171.282 12.7307C171.282 12.7307 161.384 4.62608 160.931 7.65297C160.478 10.6799 167.175 16.746 167.175 16.746C167.175 16.746 159.92 11.5447 158.146 13.7191C156.371 15.8935 172.227 27.791 176.8 37.2176C181.373 46.6442 179.87 100.461 184.923 119.067C190.273 138.748 244.656 141.194 236.87 115.064Z" fill="#D27878"/>
<path d="M108.154 112.63L106.871 112.432C107.441 109.097 108.568 95.2223 108.581 95.0864L109.877 95.1853C109.825 95.7536 108.737 109.245 108.154 112.63Z" fill="#140000"/>
<path d="M188.484 131.632C179.662 120.932 179.559 67.511 179.559 65.2378H180.854C180.854 65.7938 180.958 120.5 189.495 130.866L188.484 131.632Z" fill="#261E35"/>
<path d="M198.016 239.438C198.016 239.438 124.046 177.764 150.59 150.25C177.133 122.736 192.381 124.725 202.9 136.833C213.419 148.928 223.64 224.39 232.306 233.347C240.96 242.292 208.69 256.71 198.016 239.438Z" fill="#140000"/>
<path d="M214.211 241.896C214.211 241.896 155.903 151.287 188.989 131.248C222.074 111.209 235.249 127.208 242.128 141.478C249.006 155.747 243.617 220.127 249.551 230.9C255.51 241.686 214.975 262.009 214.211 241.896Z" fill="#140000"/>
<path d="M189.935 197.247C189.935 197.247 184.597 231.284 145.54 241.897C122.209 248.235 100.795 246.74 88.1387 236.77C75.4822 226.799 73.6297 196.222 77.9565 189.686C82.2833 183.151 154.465 133.596 180.206 129.902C191.139 128.333 196.775 193.071 189.935 197.247Z" fill="#140000"/>
<path d="M229.096 229.467C229.044 229.047 223.344 186.782 212.191 155.673C202.708 129.234 191.502 130.495 191.399 130.519L191.191 129.296C191.684 129.21 203.537 127.69 213.421 155.278C224.627 186.51 230.34 228.899 230.392 229.319L229.096 229.467Z" fill="#FEFCFF"/>
<path d="M179.325 219.707C178.275 218.435 153.532 188.24 151.473 168.633L152.768 168.51C154.789 187.771 180.089 218.632 180.348 218.941L179.325 219.707Z" fill="#FEFCFF"/>
<path d="M198.02 239.438C198.02 239.438 222.141 231.469 226.144 230.419C232.634 228.714 245.977 226.144 248.231 226.762C250.485 227.38 249.643 241.39 255.667 247.27C261.678 253.151 273.013 262.145 270.966 264.184C268.919 266.222 243.01 261.688 243.01 261.688C243.01 261.688 264.489 263.529 262.403 265.691C260.304 267.866 230.056 276.254 221.739 268.298C213.383 260.342 198.02 239.438 198.02 239.438Z" fill="#D27878"/>
<path d="M262.094 266.26L241.484 256.611L241.393 256.487C235.149 248.358 229.371 230.32 229.125 229.566L230.369 229.208C230.42 229.393 236.263 247.616 242.352 255.635L262.677 265.148L262.094 266.26Z" fill="#261E35"/>
<path d="M75.2343 170.648C75.2343 170.648 96.7646 176.998 113.204 163.729C119.875 158.342 91.2331 235.744 88.137 236.77C85.0408 237.795 64.4303 214.951 75.2343 170.648Z" fill="#140000"/>
</svg>
